<?xml version="1.0" encoding="utf-8"?>
<!-- Generator: Adobe Illustrator 22.0.2, SVG Export Plug-In . SVG Version: 6.00 Build 0)  -->
<svg version="1.1" id="Layer_1" xmlns="http://www.w3.org/2000/svg" xmlns:xlink="http://www.w3.org/1999/xlink" x="0px" y="0px"
	 viewBox="0 0 640 480" style="enable-background:new 0 0 640 480;" xml:space="preserve">
<style type="text/css">
	.st0{fill:#F9CDBD;}
	.st1{fill:#D38B9B;}
	.st2{fill:#70433B;}
	.st3{fill:#FCF8F9;}
	.st4{fill:#FCF9FA;}
	.st5{fill:#FDFBFC;}
	.st6{fill:#FEFDFD;}
	.st7{fill:#FCF4D7;}
	.st8{fill:#FAE54E;}
	.st9{fill:#D38E9F;}
	.st10{fill:#70443C;}
	.st11{fill:#734840;}
</style>
<path class="st0" d="M194.1,386.3c-4.3-3.6-8.5-7.2-12.8-10.8c-8.6-7.3-16.5-15.3-23.7-23.9c-11-13-20.3-27.2-27.7-42.5
	c-9.8-20.2-16.5-41.3-19.5-63.6c-1.8-13.2-2.7-26.5-2-39.7c1.5-26.9,7.6-52.6,18.7-77.2c12.2-27,29.5-50.2,51.4-70
	c19.6-17.6,41.8-31.1,66.5-40.4c14.6-5.5,29.5-9.3,44.8-11.5c7.9-1.1,16-1.5,24-1.8c19.4-0.7,38.4,1.4,57.1,6.1
	c29.5,7.3,56.3,20.6,80.1,39.6c23,18.4,41.6,40.7,55.4,66.9c11.5,21.9,19,45,22.3,69.5c1.6,12.1,2.6,24.3,2,36.4
	c-1.2,25.9-6.4,50.9-16.6,74.8c-7.5,17.6-17.1,34-29,48.9c-11,13.9-23.6,26.3-37.8,37.1c-0.9,0.7-1.9,1.2-2.3,2.3
	c-51.2,0-102.4,0-153.5,0C259.1,386.3,226.6,386.3,194.1,386.3z M311.4,357.3c29.7,0,51.7-3,73-9.9c32.3-10.4,60.7-27,81.9-54.1
	c21.6-27.6,29.5-58.6,20.5-93c-5.9-22.4-18.6-40.7-35.4-56.3c-1.5-1.4-2-2.5-1.4-4.7c4.7-17.4,3.3-34.6-3.3-51.3
	c-3.5-8.9-8.7-12.2-18.3-10.9c-19.5,2.5-36.1,10.8-49.6,25.1c-1.4,1.5-2.5,1.7-4.4,1.2c-10.9-2.9-21.9-4.9-33.1-5.9
	c-25.9-2.4-51.5-0.9-76.7,5.7c-2.1,0.5-3.5,0.2-5.1-1.5c-12.1-12.9-27.2-20.6-44.4-24c-14.6-2.8-20.3,0.7-24.8,15.1
	c-4.8,15.2-5.9,30.7-1.6,46.2c0.5,1.9,0.1,2.9-1.2,4.1c-6,5.4-11.6,11.2-16.4,17.7c-26,35-31.5,72.4-12.4,112.2
	c10.9,22.8,28.5,39.8,49.5,53.3C241.8,347.9,279.1,356.9,311.4,357.3z"/>
<path class="st1" d="M163.4,376.5c40.4,0,80.9,0.1,121.3,0.1c63.7,0,127.4,0,191.1,0c8.1,2.1,12.6,7.4,12.6,15.6
	c0.1,22.5,0.1,45,0,67.5c0,10.4-6.6,16.3-17.7,16.3c-100.7,0-201.4,0-302.1,0c-2.1,0-4.2-0.1-6.3-0.6c-6.9-1.7-11.5-7.3-11.6-14.5
	c-0.1-23.1-0.1-46.2,0-69.4C150.8,383.7,155.3,378.5,163.4,376.5z M437.3,450.5c8.7,0,17.3,0,26,0c1.8,0,4.1,0.8,4.2-2.5
	c0.1-3.2-2.1-2.7-4-2.7c-4.4,0-8.8,0-13.2,0c-10.4,0-10.4,0-10-10.5c0.1-2.5,0.8-3.5,3.4-3.4c4.6,0.2,9.1,0,13.7,0.1
	c2.1,0,3-0.7,3-2.9c-0.1-9.3-0.1-18.5,0-27.8c0-2.4-0.9-3.1-3.2-3.1c-2.5,0-3.2,1-3.1,3.3c0.1,1.7-0.1,3.4,0,5
	c0.3,2.7-0.8,3.7-3.6,3.7c-7.1-0.2-14.3-0.1-21.4-0.1c-8,0-8,0-8.2-8.1c0-2.2-0.1-3.7-3-3.8c-3.3-0.1-3.2,1.7-3.2,4
	c0.1,6.7,0,13.4,0,20.1c0,9.8,0,9.8,9.7,9.8c10.2,0,10.1,0,9.8,10.3c-0.1,2.8-1,3.7-3.7,3.7c-6.5-0.1-13.1,0-19.6,0
	c-1.7,0-3.3-0.1-3.4,2.5c-0.1,2.7,1.5,2.8,3.5,2.8C419.7,450.5,428.5,450.5,437.3,450.5z M226.4,412.6
	C226.4,412.6,226.4,412.6,226.4,412.6c0-5.3-0.1-10.6,0-16c0-2.3-0.2-3.7-3.1-3.7c-2.8,0-3.4,1.1-3.2,3.6c0.1,2,0.1,4,0,5.9
	c-0.1,8.2,1.1,7-6.9,7c-7.7,0.1-7.8,0-7.8-7.5c0-3.1-0.9-4.3-4.2-4.3c-7.6,0.2-15.2,0.1-22.8,0c-2.4,0-3.7,0.6-3.7,3.3
	c0.1,7.6,0.1,15.2,0,22.8c0,2.4,0.9,3.2,3.2,3.2c8.1-0.1,16.1-0.1,24.2,0c2.3,0,3.1-0.8,3.3-3.2c0.5-9.1,0.6-9.1,10-9.1
	c0.6,0,1.2,0.1,1.8,0c2.1-0.2,3,0.7,3,2.9c-0.1,3.8,0.1,7.6-0.1,11.4c-0.1,2.4,0.8,3.2,3.2,3.2c2.3,0,3.3-0.8,3.2-3.2
	C226.3,423.6,226.4,418.1,226.4,412.6z M363,457.9c6.1,0,12.2,0,18.3,0c1.8,0,4.3,0.9,4.1-2.5c-0.1-3.1-2.5-2.1-4.1-2.1
	c-10.3-0.1-20.7-0.1-31,0c-3,0-3.5-1.3-3.5-3.9c0-2.5,0.7-3.5,3.4-3.5c7.1,0.1,14.3,0,21.5,0c12,0,11.9,0,11.9-11.8
	c0-3.4-1-4.5-4.4-4.5c-11.4,0.2-22.8,0-34.2,0.1c-1.8,0-4.2-0.8-4.2,2.5c-0.1,3.3,2.2,2.7,4.1,2.7c9.4,0,18.9,0,28.3,0
	c2.4,0,4.4-0.2,4.3,3.4c0,3.4-2,3.1-4.1,3.1c-6.7,0-13.4,0-20.1,0c-13.3,0-13.2,0-12.5,13.4c0.1,2.4,0.9,3.1,3.2,3.1
	C350.2,457.9,356.6,457.9,363,457.9z M280.3,433.2c-4.5-0.3-9.3,0.6-13.8,2.5c-4.6,1.9-7.7,5.3-7.7,10.3c-0.1,4.6,2.7,8.2,6.9,9.9
	c10.3,4.3,20.7,4.8,30.7-0.6c8-4.3,8.1-13.4,0.5-18.4C292,433.7,286.4,433,280.3,433.2z M204.7,434.1c-5.1-0.3-10,0.4-14.7,2.4
	c-4.2,1.8-7.2,4.5-7.3,9.5c-0.2,5.1,2.6,8.4,7,10.2c9.9,3.9,19.8,3.9,29.7-0.1c4.2-1.7,7.1-4.9,7.1-9.7c0-5-3.2-8.1-7.5-9.9
	C214.4,434.5,209.6,433.8,204.7,434.1z M330.6,409.8c-0.2,8.5,7.2,15.4,18.2,14.8c9.2-0.5,15.1-5.9,15.6-13.1
	c0.8-9.7-7.6-17.3-18-16.2C336.8,396.3,330.7,401.9,330.6,409.8z M295.8,412.4c0,5.6,0.1,11.3,0,16.9c-0.1,3.5,2.2,3.2,4.3,2.8
	c2.2-0.4,1.4-2.4,1.4-3.8c0.1-6.7-0.8-6.3,6-6.2c0.6,0,1.2,0,1.8,0c2,0,2.1-1.3,2.1-2.8c0-1.4-0.3-2.4-2-2.4c-1.2,0-2.5-0.2-3.6,0
	c-3.4,0.5-4.4-0.9-4.4-4.3c0-3.6,0.8-5.5,4.8-4.9c1.2,0.2,2.4,0,3.6,0c1.4-0.1,1.6-1.1,1.6-2.3c0-1.1-0.1-2.2-1.5-2.3
	c-1.2-0.1-2.5-0.2-3.6,0c-3.9,0.6-5.3-1.1-4.7-4.8c0.1-0.7,0-1.5,0-2.3c0.2-2.1-0.7-3-2.9-3c-2.2,0-2.9,0.9-2.9,3
	C295.8,401.5,295.8,406.9,295.8,412.4z M253.8,411.7C253.8,411.7,253.8,411.7,253.8,411.7c0,3.8,0.1,7.6-0.1,11.4
	c-0.1,2.5,0.6,3.7,3.3,3.5c9.7-0.9,19.4-0.5,29-2.5c1.9-0.4,3.7-0.6,3.3-3.2c-0.5-2.8-2.3-2.1-4.2-1.8c-7.2,1.2-14.4,1.8-21.7,2.3
	c-3.3,0.2-4.2-1.1-4-4.2c0.2-5.8,0-11.6,0.1-17.3c0-2.1-0.7-3-2.9-3c-2.2,0-2.9,1-2.8,3C253.9,403.8,253.8,407.8,253.8,411.7z
	 M377.1,409.7c0,4.7,0.1,9.4,0,14.1c-0.1,2.5,0.9,3.1,3.2,3.1c2,0,3.1-0.5,3.1-2.8c-0.1-9.4-0.1-18.8,0-28.2c0-2.2-0.9-2.8-3-2.9
	c-2.2,0-3.3,0.5-3.3,3C377.3,400.6,377.1,405.1,377.1,409.7z"/>
<path class="st2" d="M311.4,357.3c-32.3-0.3-69.6-9.4-103.3-31c-21.1-13.5-38.6-30.6-49.5-53.3c-19.1-39.8-13.6-77.2,12.4-112.2
	c4.8-6.5,10.4-12.3,16.4-17.7c1.3-1.2,1.8-2.2,1.2-4.1c-4.3-15.5-3.2-31,1.6-46.2c4.6-14.4,10.2-17.9,24.8-15.1
	c17.2,3.4,32.3,11.1,44.4,24c1.6,1.7,3,2,5.1,1.5c25.2-6.5,50.9-8,76.7-5.7c11.2,1,22.3,3,33.1,5.9c1.9,0.5,3,0.3,4.4-1.2
	c13.5-14.4,30.1-22.6,49.6-25.1c9.6-1.2,14.8,2,18.3,10.9c6.6,16.7,7.9,33.9,3.3,51.3c-0.6,2.2-0.1,3.3,1.4,4.7
	c16.8,15.6,29.5,34,35.4,56.3c9,34.4,1.1,65.4-20.5,93c-21.2,27.1-49.6,43.7-81.9,54.1C363.1,354.2,341.1,357.3,311.4,357.3z
	 M374.7,115.3c-8.9-2.5-17.9-4.7-27.2-5.4c-3.1-0.8-6.3-1.1-9.5-1.1c-11.2-1.2-22.5-1.7-33.8-0.3c-3.1-0.2-6.2,0.2-9.3,0.8
	c-9.3,0.9-18.5,2.4-27.5,5c-2.5,0.6-5,1-7.4,1.9c-2.2,0.8-3.5,0.3-4.8-1.7c-3.9-5.9-9-10.6-14.9-14.4c-9.7-6.3-20.2-10.8-32-11.7
	c-2.2-0.2-4.4-0.1-5.4,2.6c-6.3,16.9-8.6,33.8-1,50.9c0.9,2,0.8,3.1-1,4.5c-10.4,8.3-19.4,17.9-26.6,29.1
	c-12,18.7-17.6,39.1-15.1,61.3c2.6,23.6,13.4,43.6,30.2,60c36.3,35.6,81.2,48.8,130.9,49.1c24.2,0,47.6-4,70.2-12.5
	c28-10.5,52.4-26.3,70-51c17.1-24,22.9-50.4,15.3-79.2c-5.6-21.2-18-38.3-34.1-52.7c-1.9-1.7-4.7-3-5.6-5.1
	c-1.1-2.5,1.7-4.8,2.5-7.2c5.1-15.5,3.1-30.5-2-45.6c-1.4-4.1-4.1-4.6-7.7-4.1c-17.2,2.5-32.1,9.6-43.1,23.2
	C382.4,115.9,379.6,117.7,374.7,115.3z"/>
<path class="st3" d="M437.3,450.5c-8.8,0-17.6,0-26.4,0c-2,0-3.6-0.1-3.5-2.8c0.1-2.6,1.6-2.5,3.4-2.5c6.5,0,13.1-0.1,19.6,0
	c2.8,0.1,3.6-0.9,3.7-3.7c0.3-10.3,0.4-10.3-9.8-10.3c-9.7,0-9.7,0-9.7-9.8c0-6.7,0.1-13.4,0-20.1c0-2.3,0-4.1,3.2-4
	c3,0.1,3,1.6,3,3.8c0.2,8.1,0.2,8.1,8.2,8.1c7.1,0,14.3-0.1,21.4,0.1c2.8,0.1,3.8-0.9,3.6-3.7c-0.2-1.7,0.1-3.3,0-5
	c-0.2-2.3,0.6-3.3,3.1-3.3c2.3,0,3.2,0.7,3.2,3.1c-0.1,9.3-0.1,18.5,0,27.8c0,2.2-0.8,2.9-3,2.9c-4.6-0.1-9.1,0.1-13.7-0.1
	c-2.6-0.1-3.3,0.9-3.4,3.4c-0.3,10.5-0.4,10.5,10,10.5c4.4,0,8.8,0,13.2,0c1.9,0,4.1-0.5,4,2.7c-0.1,3.3-2.4,2.5-4.2,2.5
	C454.6,450.6,446,450.5,437.3,450.5z M437.1,426.7c2.9,0,5.8,0.1,8.7,0c9.6-0.2,8,1.8,8.4-8.5c0.1-3.3-1.1-4.1-4.2-4.1
	c-6.8,0.2-13.7,0.1-20.5,0.1c-9.1,0-9,0-8.6,9.2c0.1,2.6,1,3.4,3.5,3.3C428.6,426.6,432.8,426.7,437.1,426.7z"/>
<path class="st4" d="M226.4,412.6c0,5.5-0.1,11,0,16.4c0.1,2.4-0.9,3.2-3.2,3.2c-2.4,0-3.3-0.8-3.2-3.2c0.1-3.8,0-7.6,0.1-11.4
	c0.1-2.2-0.8-3.1-3-2.9c-0.6,0.1-1.2,0-1.8,0c-9.4-0.1-9.5-0.1-10,9.1c-0.1,2.4-0.9,3.2-3.3,3.2c-8.1-0.1-16.1-0.1-24.2,0
	c-2.3,0-3.3-0.8-3.2-3.2c0.1-7.6,0.1-15.2,0-22.8c0-2.7,1.3-3.3,3.7-3.3c7.6,0.1,15.2,0.2,22.8,0c3.3-0.1,4.2,1.2,4.2,4.3
	c0.1,7.5,0.2,7.6,7.8,7.5c8-0.1,6.8,1.2,6.9-7c0-2,0.1-4,0-5.9c-0.2-2.4,0.5-3.6,3.2-3.6c2.9,0,3.1,1.5,3.1,3.7
	C226.3,402,226.4,407.3,226.4,412.6C226.4,412.6,226.4,412.6,226.4,412.6z M180.9,412.6c0,9.6,0,9.6,8.4,9.6c9.8,0,9.8,0,9.8-10.1
	c0-9.2,0-9.2-8.9-9.2C180.9,403,180.9,403,180.9,412.6z"/>
<path class="st3" d="M363,457.9c-6.4,0-12.8-0.1-19.2,0c-2.3,0-3.1-0.7-3.2-3.1c-0.7-13.5-0.8-13.4,12.5-13.4c6.7,0,13.4,0,20.1,0
	c2.2,0,4.1,0.3,4.1-3.1c0-3.6-1.9-3.4-4.3-3.4c-9.4,0.1-18.9,0-28.3,0c-1.9,0-4.2,0.6-4.1-2.7c0.1-3.3,2.4-2.5,4.2-2.5
	c11.4-0.1,22.8,0.1,34.2-0.1c3.4-0.1,4.4,1.1,4.4,4.5c0,11.8,0.2,11.8-11.9,11.8c-7.2,0-14.3,0.1-21.5,0c-2.7-0.1-3.4,1-3.4,3.5
	c0,2.5,0.5,3.9,3.5,3.9c10.3-0.2,20.7-0.1,31,0c1.6,0,3.9-1,4.1,2.1c0.2,3.4-2.4,2.5-4.1,2.5C375.1,458,369.1,457.9,363,457.9z"/>
<path class="st4" d="M280.3,433.2c6.1-0.1,11.6,0.5,16.5,3.7c7.6,4.9,7.5,14.1-0.5,18.4c-10,5.4-20.5,4.9-30.7,0.6
	c-4.2-1.7-6.9-5.3-6.9-9.9c0.1-5,3.1-8.4,7.7-10.3C271.1,433.8,275.8,432.9,280.3,433.2z M280.8,437.8c-4.4,0.2-8.6,0.5-12.4,2.8
	c-4.8,2.9-4.8,8.4,0.1,10.8c7.8,3.7,15.8,3.8,23.7,0.2c2.3-1.1,3.8-2.9,3.8-5.7c0-2.8-1.6-4.6-3.9-5.7
	C288.6,438.4,284.6,438,280.8,437.8z"/>
<path class="st4" d="M204.7,434.1c4.9-0.3,9.7,0.4,14.2,2.3c4.3,1.9,7.5,5,7.5,9.9c0,4.8-2.8,8-7.1,9.7c-9.9,4-19.8,4-29.7,0.1
	c-4.4-1.7-7.1-5.1-7-10.2c0.2-4.9,3.2-7.7,7.3-9.5C194.6,434.5,199.6,433.8,204.7,434.1z M203.4,438.7c-3.5,0.1-7.9,0.4-11.7,2.8
	c-4,2.5-4.1,7.9,0.2,9.9c8.2,3.9,16.8,4,25,0.1c4.8-2.3,4.6-7.8-0.2-10.3C212.9,439,208.6,438.7,203.4,438.7z"/>
<path class="st5" d="M330.6,409.8c0.1-7.9,6.2-13.5,15.8-14.5c10.4-1.1,18.8,6.5,18,16.2c-0.6,7.2-6.4,12.5-15.6,13.1
	C337.8,425.2,330.4,418.3,330.6,409.8z M347.6,400.3c-6.4,0-11.2,4-11.3,9.5c-0.1,5.5,4.6,9.7,11,9.8c6.6,0.1,11.6-4.1,11.5-9.7
	C358.7,404.4,353.9,400.3,347.6,400.3z"/>
<path class="st5" d="M295.8,412.4c0-5.5,0.1-11,0-16.4c0-2.1,0.6-3,2.9-3c2.2,0,3.1,0.8,2.9,3c-0.1,0.8,0.1,1.5,0,2.3
	c-0.6,3.7,0.8,5.4,4.7,4.8c1.2-0.2,2.4,0,3.6,0c1.4,0.1,1.5,1.2,1.5,2.3c0,1.1-0.2,2.2-1.6,2.3c-1.2,0.1-2.5,0.2-3.6,0
	c-4-0.6-4.8,1.2-4.8,4.9c0,3.4,1,4.8,4.4,4.3c1.2-0.2,2.4,0,3.6,0c1.7,0,2,1.1,2,2.4c0,1.5-0.1,2.8-2.1,2.8c-0.6,0-1.2,0-1.8,0
	c-6.8,0-6-0.4-6,6.2c0,1.4,0.8,3.4-1.4,3.8c-2.1,0.4-4.4,0.7-4.3-2.8C295.9,423.7,295.8,418.1,295.8,412.4z"/>
<path class="st5" d="M253.8,411.7c0-4,0.1-7.9,0-11.9c0-2.1,0.6-3,2.8-3c2.2,0,2.9,0.9,2.9,3c-0.1,5.8,0.1,11.6-0.1,17.3
	c-0.1,3.1,0.7,4.4,4,4.2c7.3-0.5,14.5-1.1,21.7-2.3c1.9-0.3,3.7-1,4.2,1.8c0.5,2.7-1.3,2.8-3.3,3.2c-9.6,2-19.3,1.6-29,2.5
	c-2.7,0.2-3.4-1-3.3-3.5C253.9,419.3,253.8,415.5,253.8,411.7C253.8,411.7,253.8,411.7,253.8,411.7z"/>
<path class="st5" d="M377.1,409.7c0-4.6,0.1-9.1,0-13.7c-0.1-2.5,1-3.1,3.3-3c2.1,0,3,0.6,3,2.9c-0.1,9.4-0.1,18.8,0,28.2
	c0,2.3-1.1,2.7-3.1,2.8c-2.3,0.1-3.3-0.6-3.2-3.1C377.2,419.1,377.1,414.4,377.1,409.7z"/>
<path class="st6" d="M295,109.2c3.1-0.6,6.1-0.9,9.3-0.8c0.3,1.6,0.5,3.1,0.8,4.7c1.5,9,3.1,17.9,7.3,26.2c1.7,3.5,3.9,6.4,8.1,7.3
	c0,21,0,42.1,0.1,63.1c-3.1,0.5-6.2,0.8-9.3,1.5c-2.9,0.7-4.6,3.5-3,5.4c3.7,4.5,6.8,9.7,12.3,12.6c0,0.7,0,1.5,0,2.2
	c-4,0.9-5.7,3.4-5.5,7.4c0.1,2.7-0.1,5.4,0.1,8.1c0.2,2.7-0.7,4.9-2.3,7.1c-6.4,8.3-13.6,10.6-23.6,7.1c-4.9-1.7-9.2-4.4-13.4-7.4
	c-2.7-1.9-6.1-1.3-7.9,1.1c-1.7,2.3-1.5,5.7,0.9,7.6c8.7,6.9,18.4,11.6,29.8,11.5c9-0.1,16-4.7,21.9-11.1c0,27.7,0,55.3,0,83
	c-49.7-0.3-94.6-13.5-130.9-49.1c-16.8-16.4-27.5-36.4-30.2-60c-2.5-22.2,3.1-42.6,15.1-61.3c7.2-11.2,16.2-20.8,26.6-29.1
	c1.8-1.4,1.9-2.5,1-4.5c-7.6-17.1-5.2-34,1-50.9c1-2.7,3.1-2.8,5.4-2.6c11.7,0.9,22.2,5.3,32,11.7c5.9,3.8,11,8.6,14.9,14.4
	c1.3,2,2.6,2.5,4.8,1.7c2.4-0.9,4.9-1.3,7.4-1.9c1.1,6.7,2.2,13.5,5.1,19.7c1.6,3.7,3.1,8,7.9,8c5,0.1,6.7-4.3,8.3-8.1
	C292.4,126.1,293.9,117.7,295,109.2z M200.1,234.4c3.2,0,6.4,0.1,9.5,0c3.5-0.2,5.9-2.6,5.9-5.8c0-3-2.3-5.5-5.7-5.6
	c-6.2-0.2-12.5-0.2-18.7,0c-3.6,0.1-5.9,2.6-5.8,5.8c0.1,3.2,2.4,5.4,6,5.6C194.2,234.5,197.2,234.4,200.1,234.4z M195.4,197.9
	c-3.2,0.2-5.3,1.6-6,4.4c-0.8,3,0.6,5.5,3.4,6.5c6.1,2.2,12.2,4.1,18.4,5.8c3.2,0.9,6-0.9,6.9-3.9c0.9-2.8-0.7-5.8-3.8-6.9
	c-3.7-1.3-7.4-2.4-11.1-3.5C200.4,199.4,197.7,198.6,195.4,197.9z M218.3,249.3c-0.1-4-3.7-6.4-8-5.2c-5.6,1.6-11.2,3.4-16.7,5.2
	c-3.4,1.1-5.1,4.1-4.3,7c0.9,3.2,4,4.8,7.6,3.8c5.7-1.7,11.4-3.5,17.1-5.3C216.7,254,218.1,252,218.3,249.3z M251.3,197.2
	c0.1,4.4,3.6,7.9,7.9,7.9c4.4,0,8.2-3.8,8.2-8.2c-0.1-4.3-3.7-7.9-8-7.9C254.9,189,251.3,192.6,251.3,197.2z"/>
<path class="st7" d="M320.4,231.5c0-0.7,0-1.5,0-2.2c0.7-0.3,1.5-0.3,2-0.8c3.7-3.6,6.8-7.7,9.4-12c1.4-2.3-0.1-4.6-2.8-5.3
	c-2.8-0.7-5.7-1-8.6-1.4c0-21,0-42.1-0.1-63.1c5.1-0.2,7.3-3.9,9.3-7.7c4.9-9.4,6.5-19.8,8.3-30.1c3.2,0,6.4,0.3,9.5,1.1
	c0.5,3.5,0.8,7,1.6,10.4c1.4,6.4,2.7,12.9,6.7,18.4c3.1,4.2,6.9,4.4,10.3,0.4c0.9-1,1.5-2.2,2.2-3.4c3.6-6.4,4.7-13.5,6.4-20.5
	c4.9,2.4,7.8,0.6,11.2-3.6c11-13.7,25.9-20.7,43.1-23.2c3.5-0.5,6.3,0,7.7,4.1c5.1,15,7.1,30.1,2,45.6c-0.8,2.5-3.6,4.8-2.5,7.2
	c1,2.1,3.7,3.4,5.6,5.1c16.2,14.5,28.5,31.5,34.1,52.7c7.7,28.8,1.8,55.2-15.3,79.2c-17.6,24.7-42,40.5-70,51
	c-22.6,8.5-46.1,12.6-70.2,12.5c0-27.7,0-55.3,0-83c0.7-1.9,1.4-2.6,3.3-0.8c4.4,4.1,9.4,7.4,15.3,9.1c13.9,4,25.1-1.4,35.2-10.3
	c3.2-2.9,3.6-6.4,1.2-8.9c-2.3-2.5-5.6-2.3-8.8,0.5c-3.4,3-7.1,5.7-11.3,7.3c-7.2,2.7-13.9,1.4-20.1-2.9c-5.7-4-10.5-8.5-8.9-16.4
	c0.1-0.5,0-1,0-1.5C326.2,234.2,325,232.8,320.4,231.5z M433.4,234.4c2.9,0,5.9,0.1,8.8,0c3.7-0.1,6.4-2.5,6.4-5.6
	c0.1-3.1-2.6-5.7-6.3-5.8c-5.9-0.1-11.7-0.1-17.6,0c-3.8,0.1-6.4,2.4-6.4,5.6c0,3.3,2.7,5.7,6.7,5.8
	C427.7,234.5,430.6,234.4,433.4,234.4z M422,243.7c-3.3,0.2-5.5,1.3-6.2,4.2c-0.7,2.9,0.3,5.5,3.3,6.5c6.2,2.1,12.5,4.1,18.8,5.9
	c3,0.8,5.8-1.1,6.5-3.8c0.8-3-0.6-5.9-3.7-7c-3.7-1.3-7.4-2.3-11.1-3.5C426.8,245.2,424.2,244.4,422,243.7z M444.5,203.4
	c-0.1-3.6-3.4-6.2-7.1-5.2c-6,1.7-11.9,3.6-17.7,5.5c-3.3,1.1-4.8,4.2-3.9,7.2c0.9,2.8,3.9,4.5,7.1,3.5c5.9-1.7,11.8-3.7,17.7-5.6
	C443.3,208.1,444.5,206.2,444.5,203.4z M365.6,197.2c0.1,4.3,3.7,7.9,8,7.9c4.4,0,8.2-3.8,8.1-8.2c-0.1-4.4-4-8.1-8.4-7.9
	C369,189.2,365.6,192.8,365.6,197.2z"/>
<path class="st8" d="M338,108.8c-1.8,10.3-3.5,20.7-8.3,30.1c-2,3.8-4.2,7.6-9.3,7.7c-4.1-0.9-6.3-3.9-8.1-7.3
	c-4.2-8.2-5.8-17.2-7.3-26.2c-0.3-1.6-0.5-3.1-0.8-4.7C315.5,107.1,326.8,107.5,338,108.8z"/>
<path class="st8" d="M295,109.2c-1,8.5-2.6,16.9-6.1,24.7c-1.7,3.8-3.3,8.2-8.3,8.1c-4.8-0.1-6.3-4.4-7.9-8
	c-2.8-6.3-3.9-13-5.1-19.7C276.5,111.6,285.7,110,295,109.2z"/>
<path class="st8" d="M374.7,115.3c-1.6,7-2.8,14.1-6.4,20.5c-0.7,1.2-1.3,2.4-2.2,3.4c-3.4,4-7.3,3.8-10.3-0.4
	c-4-5.5-5.3-12-6.7-18.4c-0.8-3.4-1.1-7-1.6-10.4C356.8,110.6,365.8,112.8,374.7,115.3z"/>
<path class="st9" d="M437.1,426.7c-4.3,0-8.5-0.1-12.8,0c-2.5,0.1-3.4-0.7-3.5-3.3c-0.3-9.2-0.4-9.2,8.6-9.2
	c6.8,0,13.7,0.1,20.5-0.1c3.1-0.1,4.3,0.8,4.2,4.1c-0.3,10.2,1.2,8.3-8.4,8.5C442.8,426.7,439.9,426.7,437.1,426.7z"/>
<path class="st1" d="M180.9,412.6c0-9.6,0-9.6,9.4-9.6c8.9,0,8.9,0,8.9,9.2c0,10.1,0,10.1-9.8,10.1
	C180.9,422.3,180.9,422.3,180.9,412.6z"/>
<path class="st9" d="M280.8,437.8c3.8,0.2,7.8,0.6,11.4,2.4c2.3,1.1,3.9,2.8,3.9,5.7c0,2.8-1.5,4.6-3.8,5.7
	c-7.9,3.7-15.9,3.6-23.7-0.2c-5-2.4-4.9-8-0.1-10.8C272.2,438.3,276.4,437.9,280.8,437.8z"/>
<path class="st9" d="M203.4,438.7c5.2,0,9.4,0.3,13.3,2.4c4.8,2.6,5,8,0.2,10.3c-8.2,4-16.8,3.8-25-0.1c-4.3-2-4.3-7.4-0.2-9.9
	C195.5,439.1,199.9,438.7,203.4,438.7z"/>
<path class="st1" d="M347.6,400.3c6.4,0,11.2,4.1,11.2,9.6c0.1,5.6-4.9,9.8-11.5,9.7c-6.4-0.1-11.1-4.3-11-9.8
	C336.4,404.3,341.2,400.3,347.6,400.3z"/>
<path class="st10" d="M320.4,231.5c4.7,1.3,5.8,2.7,5.8,7.4c0,0.5,0.1,1,0,1.5c-1.6,8,3.2,12.5,8.9,16.4c6.2,4.3,12.9,5.6,20.1,2.9
	c4.3-1.6,7.9-4.2,11.3-7.3c3.2-2.8,6.4-3,8.8-0.5c2.4,2.6,2,6.1-1.2,8.9c-10.1,8.9-21.3,14.3-35.2,10.3c-5.9-1.7-10.9-5-15.3-9.1
	c-1.9-1.7-2.6-1-3.3,0.8c-6,6.4-12.9,11-21.9,11.1c-11.4,0.1-21.1-4.6-29.8-11.5c-2.4-1.9-2.6-5.4-0.9-7.6c1.8-2.4,5.2-3,7.9-1.1
	c4.2,3,8.5,5.7,13.4,7.4c10,3.4,17.2,1.2,23.6-7.1c1.7-2.1,2.5-4.3,2.3-7.1c-0.2-2.7,0.1-5.4-0.1-8.1
	C314.7,234.9,316.4,232.4,320.4,231.5z"/>
<path class="st11" d="M200.1,234.4c-2.9,0-5.9,0.1-8.8,0c-3.6-0.1-5.9-2.4-6-5.6c-0.1-3.2,2.2-5.7,5.8-5.8c6.2-0.2,12.5-0.2,18.7,0
	c3.3,0.1,5.6,2.6,5.7,5.6c0.1,3.1-2.3,5.6-5.9,5.8C206.5,234.5,203.3,234.4,200.1,234.4z"/>
<path class="st10" d="M195.4,197.9c2.4,0.7,5.1,1.5,7.7,2.3c3.7,1.2,7.5,2.2,11.1,3.5c3.1,1.1,4.7,4.1,3.8,6.9
	c-0.9,3-3.7,4.8-6.9,3.9c-6.2-1.8-12.4-3.7-18.4-5.8c-2.8-1-4.1-3.5-3.4-6.5C190.1,199.5,192.2,198.1,195.4,197.9z"/>
<path class="st10" d="M218.3,249.3c-0.2,2.7-1.6,4.6-4.3,5.5c-5.7,1.8-11.3,3.6-17.1,5.3c-3.6,1-6.6-0.6-7.6-3.8
	c-0.8-2.9,0.9-5.9,4.3-7c5.5-1.8,11.1-3.6,16.7-5.2C214.6,242.9,218.2,245.3,218.3,249.3z"/>
<path class="st2" d="M320.4,209.7c2.9,0.5,5.8,0.7,8.6,1.4c2.7,0.7,4.2,2.9,2.8,5.3c-2.6,4.4-5.8,8.4-9.4,12c-0.5,0.5-1.3,0.6-2,0.8
	c-5.5-2.8-8.6-8.1-12.3-12.6c-1.6-2,0.1-4.8,3-5.4C314.2,210.5,317.3,210.2,320.4,209.7z"/>
<path class="st10" d="M251.3,197.2c-0.1-4.6,3.5-8.2,8.1-8.2c4.3,0,8,3.6,8,7.9c0.1,4.4-3.8,8.2-8.2,8.2
	C255,205.1,251.4,201.5,251.3,197.2z"/>
<path class="st11" d="M433.4,234.4c-2.8,0-5.6,0-8.4,0c-4-0.1-6.7-2.5-6.7-5.8c0-3.2,2.6-5.6,6.4-5.6c5.9-0.1,11.7-0.1,17.6,0
	c3.7,0.1,6.4,2.6,6.3,5.8c-0.1,3.2-2.7,5.5-6.4,5.6C439.2,234.5,436.3,234.4,433.4,234.4z"/>
<path class="st10" d="M422,243.7c2.2,0.7,4.9,1.5,7.5,2.3c3.7,1.1,7.5,2.2,11.1,3.5c3.1,1.1,4.5,4,3.7,7c-0.7,2.7-3.6,4.6-6.5,3.8
	c-6.3-1.8-12.6-3.7-18.8-5.9c-3-1-3.9-3.6-3.3-6.5C416.4,245,418.6,243.8,422,243.7z"/>
<path class="st10" d="M444.5,203.4c0,2.7-1.3,4.7-3.9,5.5c-5.9,1.9-11.8,3.8-17.7,5.6c-3.2,0.9-6.2-0.8-7.1-3.5
	c-1-3,0.6-6.1,3.9-7.2c5.9-2,11.8-3.8,17.7-5.5C441.1,197.2,444.5,199.8,444.5,203.4z"/>
<path class="st10" d="M365.6,197.2c-0.1-4.4,3.3-8,7.7-8.2c4.5-0.2,8.3,3.4,8.4,7.9c0.1,4.4-3.7,8.2-8.1,8.2
	C369.3,205.1,365.7,201.5,365.6,197.2z"/>
</svg>
