<?xml version="1.0" encoding="utf-8"?>
<!-- Generator: Adobe Illustrator 22.0.2, SVG Export Plug-In . SVG Version: 6.00 Build 0)  -->
<svg version="1.1" id="Layer_1" xmlns="http://www.w3.org/2000/svg" xmlns:xlink="http://www.w3.org/1999/xlink" x="0px" y="0px"
	 viewBox="0 0 640 480" style="enable-background:new 0 0 640 480;" xml:space="preserve">
<style type="text/css">
	.st0{fill:#70433B;}
	.st1{fill:#FEFDFD;}
	.st2{fill:#FCF4D7;}
	.st3{fill:#FAE54E;}
	.st4{fill:#70443C;}
	.st5{fill:#734840;}
</style>
<path class="st0" d="M310.6,433c-44.2-0.4-95.2-12.9-141.4-42.4c-28.8-18.5-52.8-41.8-67.8-73c-26.2-54.5-18.6-105.7,17-153.6
	c6.6-8.9,14.2-16.9,22.5-24.3c1.8-1.6,2.4-3,1.7-5.5c-5.8-21.3-4.4-42.4,2.2-63.2c6.2-19.7,14-24.5,34-20.7
	c23.6,4.6,44.2,15.2,60.8,32.8c2.2,2.3,4.1,2.8,7,2c34.5-9,69.6-11,105-7.8c15.3,1.4,30.5,4.1,45.4,8.1c2.6,0.7,4.1,0.4,6-1.6
	c18.4-19.7,41.2-31,67.9-34.4c13.1-1.7,20.3,2.8,25.1,15c9,22.9,10.9,46.4,4.5,70.3c-0.8,3-0.1,4.5,2,6.4
	c23,21.4,40.4,46.5,48.4,77.1c12.4,47.1,1.5,89.5-28,127.3c-29,37.1-67.9,59.8-112.1,74C381.4,428.8,351.3,433,310.6,433z
	 M397.3,101.7c-12.2-3.5-24.5-6.4-37.2-7.4c-4.3-1.2-8.6-1.5-13-1.5c-15.4-1.7-30.8-2.3-46.2-0.5c-4.3-0.3-8.5,0.3-12.7,1
	c-12.7,1.2-25.3,3.3-37.6,6.9c-3.4,0.8-6.9,1.4-10.2,2.6c-3.1,1.1-4.8,0.4-6.6-2.3c-5.4-8-12.4-14.5-20.4-19.8
	c-13.3-8.7-27.7-14.7-43.8-16c-3.1-0.2-6-0.2-7.3,3.6c-8.6,23.1-11.8,46.3-1.4,69.7c1.2,2.8,1,4.2-1.4,6.2
	c-14.2,11.4-26.5,24.5-36.4,39.9c-16.5,25.6-24.1,53.6-20.7,84c3.6,32.4,18.3,59.6,41.3,82.1c49.7,48.7,111.2,66.8,179.2,67.2
	c33.1,0,65.2-5.5,96.1-17.2c38.3-14.4,71.7-36,95.8-69.8c23.4-32.8,31.4-69,20.9-108.4c-7.7-29-24.6-52.4-46.7-72.2
	c-2.6-2.3-6.4-4.1-7.7-7c-1.5-3.4,2.3-6.5,3.4-9.9c6.9-21.2,4.2-41.8-2.7-62.4c-1.9-5.6-5.7-6.3-10.5-5.6
	C448,68.4,427.6,78,412.6,96.8C407.9,102.6,404,105.1,397.3,101.7z"/>
<path class="st1" d="M288.2,93.4c4.2-0.8,8.4-1.3,12.7-1c0.3,2.1,0.7,4.3,1,6.4c2.1,12.3,4.3,24.6,10,35.8c2.4,4.7,5.4,8.8,11,10
	c0,28.8,0.1,57.6,0.1,86.4c-4.2,0.7-8.5,1.1-12.7,2.1c-4,0.9-6.3,4.8-4.1,7.4c5.1,6.2,9.3,13.3,16.8,17.2c0,1,0,2,0,3.1
	c-5.4,1.2-7.8,4.6-7.6,10.1c0.2,3.7-0.2,7.4,0.1,11c0.2,3.7-1,6.7-3.2,9.7c-8.8,11.4-18.6,14.5-32.3,9.8c-6.7-2.3-12.6-6-18.4-10.1
	c-3.6-2.6-8.4-1.7-10.8,1.5c-2.3,3.1-2,7.9,1.2,10.4c11.9,9.5,25.2,15.9,40.8,15.7c12.3-0.2,21.8-6.4,30-15.2
	c0,37.9,0,75.7,0.1,113.6c-68-0.4-129.5-18.5-179.2-67.2c-23-22.5-37.7-49.8-41.3-82.1c-3.4-30.4,4.2-58.3,20.7-84
	c9.9-15.3,22.2-28.5,36.4-39.9c2.4-1.9,2.6-3.4,1.4-6.2c-10.4-23.4-7.2-46.6,1.4-69.7c1.4-3.7,4.3-3.8,7.3-3.6
	c16.1,1.2,30.4,7.3,43.8,16c8.1,5.2,15.1,11.7,20.4,19.8c1.8,2.7,3.6,3.4,6.6,2.3c3.3-1.2,6.8-1.7,10.2-2.6c1.5,9.2,3.1,18.4,6.9,27
	c2.3,5,4.3,10.9,10.9,11c6.9,0.1,9.1-5.9,11.4-11.1C284.6,116.5,286.8,105,288.2,93.4z M158.3,264.8c4.3,0,8.7,0.2,13,0
	c4.8-0.2,8.1-3.6,8-7.9c-0.1-4.1-3.2-7.5-7.8-7.6c-8.5-0.2-17-0.2-25.6,0c-4.9,0.1-8,3.5-8,7.9c0.1,4.4,3.2,7.5,8.2,7.7
	C150.3,265,154.3,264.8,158.3,264.8z M151.8,214.9c-4.4,0.3-7.2,2.2-8.2,6c-1,4.1,0.8,7.5,4.6,8.9c8.3,2.9,16.7,5.6,25.2,8
	c4.3,1.2,8.2-1.2,9.4-5.3c1.2-3.9-1-8-5.3-9.5c-5-1.8-10.1-3.3-15.2-4.8C158.7,216.9,155.1,215.8,151.8,214.9z M183.2,285.2
	c-0.1-5.5-5.1-8.8-10.9-7.1c-7.7,2.2-15.3,4.6-22.9,7.1c-4.7,1.5-7,5.6-5.9,9.6c1.3,4.4,5.4,6.6,10.4,5.2c7.8-2.3,15.6-4.8,23.3-7.3
	C181,291.6,183,288.9,183.2,285.2z M228.4,213.9c0.1,6,5,10.8,10.9,10.9c6,0,11.3-5.3,11.2-11.2c-0.1-5.9-5.1-10.8-11-10.8
	C233.3,202.6,228.4,207.6,228.4,213.9z"/>
<path class="st2" d="M322.9,260.8c0-1,0-2,0-3.1c0.9-0.4,2.1-0.5,2.8-1.1c5-4.9,9.4-10.5,12.9-16.5c1.9-3.2-0.1-6.3-3.9-7.2
	c-3.9-0.9-7.9-1.3-11.8-1.9c0-28.8-0.1-57.6-0.1-86.4c7-0.3,10-5.4,12.7-10.6c6.7-12.9,9-27.1,11.4-41.2c4.4,0,8.8,0.4,13,1.5
	c0.7,4.8,1.2,9.6,2.2,14.3c2,8.8,3.7,17.7,9.2,25.2c4.2,5.8,9.5,6,14.1,0.6c1.2-1.4,2.1-3,3-4.6c4.9-8.7,6.5-18.5,8.7-28.1
	c6.8,3.3,10.6,0.8,15.3-5c15-18.7,35.4-28.3,58.9-31.8c4.8-0.7,8.6,0,10.5,5.6c7,20.6,9.7,41.2,2.7,62.4c-1.1,3.4-4.9,6.6-3.4,9.9
	c1.3,2.9,5.1,4.7,7.7,7c22.1,19.8,39,43.2,46.7,72.2c10.5,39.4,2.5,75.5-20.9,108.4c-24.1,33.8-57.5,55.4-95.8,69.8
	c-30.9,11.7-63.1,17.2-96.1,17.2c0-37.9,0-75.7-0.1-113.6c1-2.6,2-3.5,4.5-1.1c6.1,5.6,12.9,10.1,20.9,12.4
	c19,5.5,34.3-1.9,48.2-14.1c4.4-3.9,5-8.7,1.7-12.2c-3.2-3.4-7.6-3.2-12,0.7c-4.7,4.1-9.7,7.7-15.5,10c-9.9,3.7-19.1,1.9-27.5-4
	c-7.8-5.4-14.4-11.6-12.2-22.5c0.1-0.6,0-1.3,0-2C330.9,264.6,329.3,262.6,322.9,260.8z M477.6,264.8c4,0,8,0.1,12,0
	c5.1-0.1,8.7-3.4,8.8-7.7c0.1-4.3-3.6-7.8-8.6-7.9c-8-0.1-16-0.1-24.1,0c-5.2,0.1-8.7,3.3-8.8,7.7c-0.1,4.5,3.7,7.8,9.1,7.9
	C469.9,264.9,473.8,264.8,477.6,264.8z M462,277.5c-4.6,0.2-7.6,1.8-8.5,5.8c-0.9,4,0.4,7.5,4.5,8.9c8.5,2.9,17,5.6,25.7,8
	c4.1,1.1,8-1.5,9-5.2c1.1-4.1-0.8-8.1-5.1-9.6c-5-1.8-10.1-3.2-15.2-4.8C468.7,279.6,465,278.5,462,277.5z M492.9,222.4
	c-0.1-5-4.7-8.5-9.7-7.1c-8.1,2.3-16.2,4.9-24.3,7.6c-4.5,1.5-6.6,5.7-5.3,9.9c1.2,3.8,5.4,6.1,9.7,4.8c8.1-2.4,16.2-5,24.3-7.6
	C491.1,228.8,492.9,226.2,492.9,222.4z M384.9,213.9c0.1,5.9,5,10.8,10.9,10.9c6,0,11.3-5.3,11.1-11.2c-0.1-6.1-5.4-11-11.5-10.8
	C389.5,202.9,384.8,207.9,384.9,213.9z"/>
<path class="st3" d="M347.1,92.8c-2.5,14.1-4.7,28.3-11.4,41.2c-2.7,5.2-5.8,10.3-12.7,10.6c-5.6-1.2-8.6-5.3-11-10
	c-5.7-11.3-7.9-23.5-10-35.8c-0.4-2.1-0.7-4.3-1-6.4C316.3,90.6,331.7,91.1,347.1,92.8z"/>
<path class="st3" d="M288.2,93.4c-1.4,11.6-3.6,23.1-8.4,33.8c-2.3,5.1-4.6,11.2-11.4,11.1c-6.6-0.1-8.6-6-10.9-11
	c-3.9-8.6-5.4-17.8-6.9-27C262.9,96.8,275.4,94.6,288.2,93.4z"/>
<path class="st3" d="M397.3,101.7c-2.2,9.6-3.8,19.3-8.7,28.1c-0.9,1.6-1.8,3.2-3,4.6c-4.7,5.4-9.9,5.2-14.1-0.6
	c-5.4-7.5-7.2-16.4-9.2-25.2c-1.1-4.7-1.5-9.5-2.2-14.3C372.8,95.4,385.1,98.3,397.3,101.7z"/>
<path class="st4" d="M322.9,260.8c6.4,1.8,7.9,3.7,8,10.2c0,0.7,0.1,1.4,0,2c-2.2,10.9,4.4,17.1,12.2,22.5c8.5,5.9,17.7,7.7,27.5,4
	c5.9-2.2,10.9-5.8,15.5-10c4.4-3.9,8.8-4.1,12-0.7c3.3,3.5,2.8,8.3-1.7,12.2c-13.8,12.2-29.1,19.6-48.2,14.1
	c-8-2.3-14.9-6.8-20.9-12.4c-2.6-2.4-3.6-1.4-4.5,1.1c-8.1,8.7-17.7,15-30,15.2c-15.6,0.2-28.9-6.3-40.8-15.7
	c-3.2-2.6-3.5-7.3-1.2-10.4c2.4-3.3,7.1-4.1,10.8-1.5c5.7,4.1,11.6,7.8,18.4,10.1c13.6,4.7,23.5,1.6,32.3-9.8
	c2.3-2.9,3.4-5.9,3.2-9.7c-0.2-3.7,0.1-7.4-0.1-11C315.1,265.5,317.5,262,322.9,260.8z"/>
<path class="st5" d="M158.3,264.8c-4,0-8,0.1-12,0c-5-0.2-8.1-3.3-8.2-7.7c-0.1-4.4,3-7.8,8-7.9c8.5-0.2,17-0.2,25.6,0
	c4.6,0.1,7.7,3.5,7.8,7.6c0.1,4.3-3.2,7.7-8,7.9C167,265,162.6,264.8,158.3,264.8z"/>
<path class="st4" d="M151.8,214.9c3.3,1,6.9,2.1,10.6,3.2c5.1,1.6,10.2,3.1,15.2,4.8c4.3,1.5,6.4,5.6,5.3,9.5
	c-1.2,4.1-5.1,6.6-9.4,5.3c-8.5-2.4-16.9-5-25.2-8c-3.9-1.4-5.7-4.8-4.6-8.9C144.6,217,147.4,215.1,151.8,214.9z"/>
<path class="st4" d="M183.2,285.2c-0.2,3.7-2.2,6.4-5.9,7.6c-7.8,2.5-15.5,5-23.3,7.3c-4.9,1.4-9.1-0.8-10.4-5.2
	c-1.1-4,1.2-8.1,5.9-9.6c7.6-2.5,15.2-4.9,22.9-7.1C178.1,276.5,183.1,279.7,183.2,285.2z"/>
<path class="st0" d="M323,231c3.9,0.6,7.9,1,11.8,1.9c3.7,0.9,5.7,4,3.9,7.2c-3.6,6-7.9,11.6-12.9,16.5c-0.7,0.6-1.8,0.8-2.8,1.1
	c-7.5-3.9-11.7-11-16.8-17.2c-2.2-2.7,0.1-6.5,4.1-7.4C314.4,232.1,318.7,231.7,323,231z"/>
<path class="st4" d="M228.4,213.9c-0.1-6.2,4.8-11.2,11-11.2c5.9,0,10.9,4.9,11,10.8c0.1,6-5.1,11.3-11.2,11.2
	C233.4,224.7,228.5,219.8,228.4,213.9z"/>
<path class="st5" d="M477.6,264.8c-3.8,0-7.7,0.1-11.5,0c-5.5-0.1-9.2-3.4-9.1-7.9c0.1-4.4,3.6-7.6,8.8-7.7c8-0.1,16-0.1,24.1,0
	c5.1,0.1,8.7,3.6,8.6,7.9c-0.1,4.3-3.7,7.6-8.8,7.7C485.6,264.9,481.6,264.8,477.6,264.8z"/>
<path class="st4" d="M462,277.5c3,0.9,6.7,2.1,10.3,3.2c5.1,1.6,10.2,3,15.2,4.8c4.3,1.5,6.2,5.5,5.1,9.6c-1,3.7-4.9,6.3-9,5.2
	c-8.6-2.4-17.2-5.1-25.7-8c-4-1.4-5.4-4.9-4.5-8.9C454.4,279.3,457.4,277.7,462,277.5z"/>
<path class="st4" d="M492.9,222.4c0,3.8-1.7,6.4-5.3,7.6c-8.1,2.6-16.1,5.2-24.3,7.6c-4.3,1.3-8.5-1-9.7-4.8
	c-1.3-4.2,0.8-8.4,5.3-9.9c8-2.7,16.1-5.2,24.3-7.6C488.2,213.9,492.8,217.4,492.9,222.4z"/>
<path class="st4" d="M384.9,213.9c-0.1-6,4.6-11,10.5-11.2c6.1-0.2,11.4,4.7,11.5,10.8c0.1,6-5.1,11.3-11.1,11.2
	C389.9,224.7,385,219.8,384.9,213.9z"/>
</svg>
